<svg id="Layer_1" data-name="Layer 1" xmlns="http://www.w3.org/2000/svg" xmlns:xlink="http://www.w3.org/1999/xlink" width="512" height="512" viewBox="0 0 512 512"><defs><clipPath id="clip-path"><polygon points="205.921 208.612 256.178 167.993 256 248.849 205.921 208.612" fill="none"/></clipPath><clipPath id="clip-path-2"><polygon points="306.033 208.397 256.178 167.993 256 248.849 306.033 208.397" fill="none"/></clipPath><clipPath id="clip-path-3"><polygon points="323.173 333.745 306.033 208.397 256 248.849 323.173 333.745" fill="none"/></clipPath><clipPath id="clip-path-4"><polygon points="256 406.261 323.173 333.745 256 248.849 256 406.261" fill="none"/></clipPath><clipPath id="clip-path-5"><polygon points="188.827 333.745 256 248.849 256 406.261 188.827 333.745" fill="none"/></clipPath><clipPath id="clip-path-6"><polygon points="188.827 333.745 205.921 208.612 256 248.849 188.827 333.745" fill="none"/></clipPath></defs><g id="Layer_2" data-name="Layer 2"><g clip-path="url(#clip-path)"><rect x="202.71283" y="163.39732" width="60" height="90" fill="#6bcce0"/></g><g clip-path="url(#clip-path-2)"><rect x="251.0166" y="163.61197" width="60" height="90" fill="#89d5ec"/></g><g clip-path="url(#clip-path-3)"><rect x="254.58639" y="205.14342" width="70" height="130" fill="#88d2da"/></g><g clip-path="url(#clip-path-4)"><rect x="251.58669" y="247.55486" width="80" height="160" fill="#73a2d6"/></g><g clip-path="url(#clip-path-5)"><rect x="184.54507" y="247.55486" width="80" height="160" fill="#7c80be"/></g><g clip-path="url(#clip-path-6)"><rect x="187.41361" y="206.1784" width="70" height="130" fill="#40bae7"/></g></g><polygon points="336.095 206.705 318.463 219.038 335.899 231.782 353.335 219.038 336.095 206.705" fill="#54ba65"/><polygon points="335.899 231.782 318.463 219.038 318.463 234.452 335.899 246.965 353.335 234.452 353.335 219.038 335.899 231.782" fill="#a37e62"/><polygon points="98.474 405.006 74.943 421.465 98.213 438.473 121.483 421.465 98.474 405.006" fill="#54ba65"/><polygon points="98.213 438.473 74.943 421.465 74.943 442.035 98.213 458.736 121.483 442.035 121.483 421.465 98.213 438.473" fill="#a37e62"/><polygon points="162.481 213.183 142.461 227.186 162.258 241.655 182.056 227.186 162.481 213.183" fill="#54ba65"/><polygon points="162.258 241.655 142.461 227.186 142.461 244.686 162.258 258.894 182.056 244.686 182.056 227.186 162.258 241.655" fill="#a37e62"/><polygon points="290.572 388.894 253.547 414.792 290.161 441.552 326.775 414.792 290.572 388.894" fill="#54ba65"/><polygon points="290.161 441.552 253.547 414.792 253.547 447.158 290.161 473.435 326.775 447.158 326.775 414.792 290.161 441.552" fill="#a37e62"/><polygon points="182.401 367.217 151.324 388.954 182.056 411.416 212.788 388.954 182.401 367.217" fill="#54ba65"/><polygon points="182.056 411.416 151.324 388.954 151.324 416.12 182.056 438.177 212.788 416.12 212.788 388.954 182.056 411.416" fill="#a37e62"/><polygon points="434.856 381.493 405.054 402.339 434.525 423.879 463.996 402.339 434.856 381.493" fill="#54ba65"/><polygon points="434.525 423.879 405.054 402.339 405.054 428.391 434.525 449.542 463.996 428.391 463.996 402.339 434.525 423.879" fill="#a37e62"/><polygon points="66.505 196.9 39.037 216.112 66.199 235.964 93.362 216.112 66.505 196.9" fill="#54ba65"/><polygon points="66.199 235.964 39.037 216.112 39.037 240.123 66.199 259.617 93.362 240.123 93.362 216.112 66.199 235.964" fill="#a37e62"/><polygon points="240.315 85.662 208.928 107.617 239.966 130.302 271.005 107.617 240.315 85.662" fill="#54ba65"/><polygon points="239.966 130.302 208.928 107.617 208.928 135.054 239.966 157.33 271.005 135.054 271.005 107.617 239.966 130.302" fill="#a37e62"/><polygon points="452.038 155.906 421.789 177.065 451.702 198.928 481.616 177.065 452.038 155.906" fill="#54ba65"/><polygon points="451.702 198.928 421.789 177.065 421.789 203.507 451.702 224.976 481.616 203.507 481.616 177.065 451.702 198.928" fill="#a37e62"/><path d="M399.38293,326.51782c-4.67993-3.42132-50.53631-36.92615-63.43811-46.3656v56.07739l63.43811,45.5293,63.43818-45.5293V280.15222Z" fill="#8d5d5c"/><polygon points="376.129 283.095 354.295 299.219 354.295 470.905 380.767 491.219 380.941 313.039 399.068 299.197 376.129 283.095" fill="#f26a2f"/><polygon points="376.129 283.095 376.129 277.84 354.295 293.572 354.295 299.219 376.129 283.095" fill="#664747"/><polygon points="376.129 283.095 399.068 299.197 402.601 296.549 376.129 277.84 376.129 283.095" fill="#664747"/><polygon points="462.821 280.152 400.096 235.281 335.945 280.152 354.299 293.567 376.129 277.84 402.601 296.549 380.941 313.039 399.383 326.518 462.821 280.152" fill="#9c3135"/><path d="M398.24822,231.7696c-10.69552,10.74181,7.65984,10.25525-6.56422,15.49392" fill="none" stroke="#ef3f23" stroke-miterlimit="10" stroke-width="4"/><path d="M387.31627,242.79869c-3.54521,3.09679-9.379,16.10567-4.70149,13.45855,4.70149-2.66065,4.245,6.68009,3.06233,6.27338" fill="none" stroke="#ef3f23" stroke-miterlimit="10" stroke-width="4"/><path d="M363.566,253.97731c.47276,4.32578-5.85245,10.31151.57359,13.89111,2.54005,1.41489-4.30354,4.52125-5.52081,4.8084" fill="none" stroke="#ef3f23" stroke-miterlimit="10" stroke-width="4"/><path d="M427.4828,270.84655c8.7958,4.09754,8.84979,14.21664,2.94115,18.61138" fill="none" stroke="#ef3f23" stroke-miterlimit="10" stroke-width="4"/><path d="M454.94486,262.54355c3.18434,9.1661-4.04079,16.25125-11.30924,15.071" fill="none" stroke="#ef3f23" stroke-miterlimit="10" stroke-width="4"/><path d="M411.13562,270.13719c3.18435,9.1661-4.04079,16.25125-11.30924,15.071" fill="none" stroke="#ef3f23" stroke-miterlimit="10" stroke-width="4"/><path d="M406.07661,245.53369c9.12853,4.88386.90665,16.775-6.1991,17.79338" fill="none" stroke="#ef3f23" stroke-miterlimit="10" stroke-width="4"/><path d="M392.32753,261.55831c3.54209,5.14433.60691,18.76666-.64353,18.79117" fill="none" stroke="#ef3f23" stroke-miterlimit="10" stroke-width="4"/><path d="M431.983,253.251c13.50183-8.51651,5.68947,5.72725-1.87528,9.38248" fill="none" stroke="#ef3f23" stroke-miterlimit="10" stroke-width="4"/><path d="M418.83519,255.57362c9.69657,2.363-1.71742,10.53657-1.77683,14.34756" fill="none" stroke="#ef3f23" stroke-miterlimit="10" stroke-width="4"/><path d="M398.748,258.78232c9.69656,2.363-1.71743,10.53658-1.77684,14.34757" fill="none" stroke="#ef3f23" stroke-miterlimit="10" stroke-width="4"/><path d="M380.22493,258.78232c9.69657,2.363-1.71742,10.53658-1.77683,14.34757" fill="none" stroke="#ef3f23" stroke-miterlimit="10" stroke-width="4"/><path d="M405.01164,279.33035c9.04748,3.507,9.77041,13.60039,4.16527,18.37618" fill="none" stroke="#ef3f23" stroke-miterlimit="10" stroke-width="4"/><polygon points="368.984 58.356 307.292 101.508 368.299 146.096 429.306 101.508 368.984 58.356" fill="#9ccdd6"/><polygon points="368.299 146.096 307.292 101.508 307.292 155.436 368.299 199.22 429.306 155.436 429.306 101.508 368.299 146.096" fill="#adb5b8"/><polygon points="362.447 90.462 365.164 61.586 369.34 80.94 366.382 83.878 365.169 96.209 362.447 90.462" fill="#b3dfd5"/><polygon points="375.787 74.736 366.382 83.878 380.884 85.51 375.787 74.736" fill="#51c3c6"/><path d="M338.64245,98.25982h19.7109l8.11353,16.58421C360.31109,111.41188,338.64245,98.25982,338.64245,98.25982Z" fill="#49a6bd"/><polygon points="362.447 90.462 358.353 98.26 366.467 114.844 370.411 107.582 362.447 90.462" fill="#72c0d4"/><polygon points="376.038 97.221 366.467 114.844 382.483 105.125 385.188 93.304 376.038 97.221" fill="#46a5bd"/><polygon points="366.382 83.878 365.158 96.327 370.411 107.582 366.382 83.878" fill="#65bad6"/><polygon points="365.158 53.307 365.164 61.586 369.34 80.94 375.787 74.736 377.94 44.751 365.158 53.307" fill="#a1d0c3"/><polygon points="363.704 29.91 365.158 53.307 377.94 44.751 363.704 29.91" fill="#b7debc"/><polygon points="354.921 52.323 365.158 53.307 363.704 29.91 354.921 52.323" fill="#bee1c3"/><polygon points="355.666 69.04 362.447 90.462 365.164 61.586 365.158 53.307 354.921 52.323 355.666 69.04" fill="#87c4b3"/><polygon points="348.762 85.741 358.353 98.26 362.447 90.462 355.666 69.04 348.762 85.741" fill="#73bea9"/><polygon points="380.884 85.51 366.382 83.878 370.411 107.582 376.038 97.221 381.783 94.795 380.884 85.51" fill="#6bc7bb"/><polygon points="348.762 85.741 358.353 98.26 347.448 98.26 348.762 85.741" fill="#49bd9d"/><path d="M309.45829,57.41137a1.24258,1.24258,0,0,1-2.48423-.00011A1.24258,1.24258,0,0,1,309.45829,57.41137Z" fill="#fff" stroke="#fff" stroke-miterlimit="10" stroke-width="5"/><path d="M290.98453,24.30555a1.24258,1.24258,0,0,1-2.48422-.00012A1.24258,1.24258,0,0,1,290.98453,24.30555Z" fill="#fff" stroke="#fff" stroke-miterlimit="10" stroke-width="5"/><path d="M292.22664,96.98734a1.24258,1.24258,0,0,1-2.48422-.00012A1.24258,1.24258,0,0,1,292.22664,96.98734Z" fill="#fff" stroke="#fff" stroke-miterlimit="10" stroke-width="5"/><path d="M279.91833,119.17186a1.24258,1.24258,0,0,1-2.48422-.00011A1.24258,1.24258,0,0,1,279.91833,119.17186Z" fill="#fff" stroke="#fff" stroke-miterlimit="10" stroke-width="5"/><path d="M466.06921,111.485a1.24258,1.24258,0,0,1-2.48422-.00011A1.24258,1.24258,0,0,1,466.06921,111.485Z" fill="#fff" stroke="#fff" stroke-miterlimit="10" stroke-width="5"/><path d="M466.06921,139.29126a1.24258,1.24258,0,0,1-2.48422-.00012A1.24258,1.24258,0,0,1,466.06921,139.29126Z" fill="#fff" stroke="#fff" stroke-miterlimit="10" stroke-width="5"/><path d="M274.42693,83.79456a1.24258,1.24258,0,0,1-2.48423-.00012A1.24258,1.24258,0,0,1,274.42693,83.79456Z" fill="#fff" stroke="#fff" stroke-miterlimit="10" stroke-width="5"/><path d="M261.21838,109.76425a1.24258,1.24258,0,0,1-2.48423-.00011A1.24258,1.24258,0,0,1,261.21838,109.76425Z" fill="#fff" stroke="#fff" stroke-miterlimit="10" stroke-width="5"/><path d="M323.84955,63.2709a1.24258,1.24258,0,0,1-2.48423-.00011A1.24258,1.24258,0,0,1,323.84955,63.2709Z" fill="#fff" stroke="#fff" stroke-miterlimit="10" stroke-width="5"/><path d="M262.46066,71.39619a1.24258,1.24258,0,0,1-2.48422-.00011A1.24258,1.24258,0,0,1,262.46066,71.39619Z" fill="#fff" stroke="#fff" stroke-miterlimit="10" stroke-width="5"/><path d="M275.669,54.92714a1.24258,1.24258,0,0,1-2.48422-.00011A1.24258,1.24258,0,0,1,275.669,54.92714Z" fill="#fff" stroke="#fff" stroke-miterlimit="10" stroke-width="5"/><path d="M305.77707,75.84778a1.24258,1.24258,0,0,1-2.48422-.00011A1.24258,1.24258,0,0,1,305.77707,75.84778Z" fill="#fff" stroke="#fff" stroke-miterlimit="10" stroke-width="5"/><path d="M315.43437,42.31491a1.24258,1.24258,0,0,1-2.48423-.00012A1.24258,1.24258,0,0,1,315.43437,42.31491Z" fill="#fff" stroke="#fff" stroke-miterlimit="10" stroke-width="5"/><path d="M422.99011,43.557a1.24258,1.24258,0,0,1-2.48423-.00011A1.24258,1.24258,0,0,1,422.99011,43.557Z" fill="#fff" stroke="#fff" stroke-miterlimit="10" stroke-width="5"/><path d="M466.06921,35.13353a1.24258,1.24258,0,0,1-2.48422-.00011A1.24258,1.24258,0,0,1,466.06921,35.13353Z" fill="#fff" stroke="#fff" stroke-miterlimit="10" stroke-width="5"/><path d="M437.16944,19.68952a1.24258,1.24258,0,0,1-2.48422-.00012A1.24258,1.24258,0,0,1,437.16944,19.68952Z" fill="#fff" stroke="#fff" stroke-miterlimit="10" stroke-width="5"/><path d="M432.246,69.71041a1.24258,1.24258,0,0,1-2.48422-.00011A1.24258,1.24258,0,0,1,432.246,69.71041Z" fill="#fff" stroke="#fff" stroke-miterlimit="10" stroke-width="5"/><path d="M453.18153,82.55244a1.24258,1.24258,0,0,1-2.48422-.00011A1.24258,1.24258,0,0,1,453.18153,82.55244Z" fill="#fff" stroke="#fff" stroke-miterlimit="10" stroke-width="5"/><path d="M409.735,64.513a1.24258,1.24258,0,0,1-2.48423-.00011A1.24258,1.24258,0,0,1,409.735,64.513Z" fill="#fff" stroke="#fff" stroke-miterlimit="10" stroke-width="5"/><path d="M402.91808,50.31111a1.24258,1.24258,0,0,1-2.48422-.00011A1.24258,1.24258,0,0,1,402.91808,50.31111Z" fill="#fff" stroke="#fff" stroke-miterlimit="10" stroke-width="5"/><path d="M474.12824,72.21308A1.24258,1.24258,0,0,1,471.644,72.213,1.24258,1.24258,0,0,1,474.12824,72.21308Z" fill="#fff" stroke="#fff" stroke-miterlimit="10" stroke-width="5"/><path d="M438.41156,58.65349a1.24258,1.24258,0,0,1-2.48423-.00012A1.24258,1.24258,0,0,1,438.41156,58.65349Z" fill="#fff" stroke="#fff" stroke-miterlimit="10" stroke-width="5"/><path d="M432.24612,85.03667a1.24258,1.24258,0,0,1-2.48423-.00011A1.24258,1.24258,0,0,1,432.24612,85.03667Z" fill="#fff" stroke="#fff" stroke-miterlimit="10" stroke-width="5"/><path d="M450.69731,114.06584a1.24258,1.24258,0,0,1-2.48423-.00011A1.24258,1.24258,0,0,1,450.69731,114.06584Z" fill="#fff" stroke="#fff" stroke-miterlimit="10" stroke-width="5"/><path d="M485.20572,138.04914a1.24258,1.24258,0,0,1-2.48422-.00011A1.24258,1.24258,0,0,1,485.20572,138.04914Z" fill="#fff" stroke="#fff" stroke-miterlimit="10" stroke-width="5"/><path d="M454.42365,54.92714a1.24258,1.24258,0,0,1-2.48422-.00011A1.24258,1.24258,0,0,1,454.42365,54.92714Z" fill="#fff" stroke="#fff" stroke-miterlimit="10" stroke-width="5"/><path d="M364.88449,14.17754a1.24258,1.24258,0,0,1-2.48422-.00011A1.24258,1.24258,0,0,1,364.88449,14.17754Z" fill="#fff" stroke="#fff" stroke-miterlimit="10" stroke-width="5"/><path d="M351.62938,35.13353a1.24258,1.24258,0,0,1-2.48422-.00011A1.24258,1.24258,0,0,1,351.62938,35.13353Z" fill="#fff" stroke="#fff" stroke-miterlimit="10" stroke-width="5"/><path d="M344.81247,20.93163a1.24258,1.24258,0,0,1-2.48423-.00011A1.24258,1.24258,0,0,1,344.81247,20.93163Z" fill="#fff" stroke="#fff" stroke-miterlimit="10" stroke-width="5"/><path d="M321.36532,9.65788a1.24258,1.24258,0,0,1-2.48423-.00012A1.24258,1.24258,0,0,1,321.36532,9.65788Z" fill="#fff" stroke="#fff" stroke-miterlimit="10" stroke-width="5"/><path d="M380.30594,29.274a1.24258,1.24258,0,0,1-2.48422-.00011A1.24258,1.24258,0,0,1,380.30594,29.274Z" fill="#fff" stroke="#fff" stroke-miterlimit="10" stroke-width="5"/><path d="M396.318,25.54766a1.24258,1.24258,0,0,1-2.48422-.00011A1.24258,1.24258,0,0,1,396.318,25.54766Z" fill="#fff" stroke="#fff" stroke-miterlimit="10" stroke-width="5"/><path d="M408.49288,15.41965a1.24258,1.24258,0,0,1-2.48422-.00011A1.24258,1.24258,0,0,1,408.49288,15.41965Z" fill="#fff" stroke="#fff" stroke-miterlimit="10" stroke-width="5"/><polygon points="109.92 267.267 56.653 304.526 109.328 343.025 162.004 304.526 109.92 267.267" fill="#fdf6ab"/><polygon points="109.328 343.025 56.653 304.526 56.653 351.089 109.328 388.894 162.004 351.089 162.004 304.526 109.328 343.025" fill="#e3df95"/><polygon points="124.911 235.061 114.835 242.002 124.911 248.495 135.882 241.778 124.911 235.061" fill="#2c273d"/><polygon points="114.835 299.544 125.359 306.19 135.882 299.733 135.882 241.778 124.911 248.495 114.835 242.002 114.835 299.544" fill="#211e2e"/><polygon points="92.92 267.267 82.991 274.107 92.92 280.507 103.733 273.887 92.92 267.267" fill="#2c273d"/><polygon points="82.991 311.123 93.362 317.673 103.733 311.309 103.733 273.887 92.92 280.507 82.991 274.107 82.991 311.123" fill="#211e2e"/><polygon points="136.016 75.294 74.943 118.012 135.337 162.153 195.731 118.012 136.016 75.294" fill="#26b34b"/><polygon points="135.337 162.153 74.943 118.012 74.943 171.399 135.337 214.743 195.731 171.399 195.731 118.012 135.337 162.153" fill="#88aa6b"/><polygon points="105.164 119.06 115.738 127.794 125.391 121.358 125.391 70.331 115.278 62.056 105.164 68.492 105.164 119.06" fill="#635c26"/><path d="M143.9268,78.23693c-7.254-6.98888-42.39692-10.84642-56.97474-.206-7.69017,5.61312,12.102-20.15759,28.00178-20.15759S150.78313,84.84272,143.9268,78.23693Z" fill="#83c671"/><polygon points="143.513 109.61 154.963 119.069 165.417 112.099 165.417 56.843 154.465 47.882 143.513 54.851 143.513 109.61" fill="#635c26"/><path d="M185.48832,65.40394c-7.85519-7.56815-45.91092-11.7454-61.697-.223C115.46377,71.25927,136.89641,43.3526,154.114,43.3526S192.91293,72.55723,185.48832,65.40394Z" fill="#60bb46"/><polygon points="127.239 139.022 135.083 145.503 142.246 140.728 142.246 102.868 134.742 96.729 127.239 101.504 127.239 139.022" fill="#635c26"/><path d="M155.99793,108.73423c-5.382-5.18533-31.45595-8.04739-42.27181-.1528-5.70564,4.16459,8.979-14.95572,20.77563-14.95572S161.08492,113.63532,155.99793,108.73423Z" fill="#8dca78"/></svg>