<svg id="Layer_1" data-name="Layer 1" xmlns="http://www.w3.org/2000/svg" xmlns:xlink="http://www.w3.org/1999/xlink" width="63.67558" height="72.51066" viewBox="0 0 63.67558 72.51066"><defs><clipPath id="clip-path" transform="translate(-0.40431 4.39689)"><polygon points="18.589 10.911 32.088 0 32.04 21.718 18.589 10.911" fill="none"/></clipPath><clipPath id="clip-path-2" transform="translate(-0.40431 4.39689)"><polygon points="45.479 10.853 32.088 0 32.04 21.718 45.479 10.853" fill="none"/></clipPath><clipPath id="clip-path-3" transform="translate(-0.40431 4.39689)"><polygon points="50.083 44.522 45.479 10.853 32.04 21.718 50.083 44.522" fill="none"/></clipPath><clipPath id="clip-path-4" transform="translate(-0.40431 4.39689)"><polygon points="32.04 64 50.083 44.522 32.04 21.718 32.04 64" fill="none"/></clipPath><clipPath id="clip-path-5" transform="translate(-0.40431 4.39689)"><polygon points="13.997 44.522 32.04 21.718 32.04 64 13.997 44.522" fill="none"/></clipPath><clipPath id="clip-path-6" transform="translate(-0.40431 4.39689)"><polygon points="13.997 44.522 18.589 10.911 32.04 21.718 13.997 44.522" fill="none"/></clipPath></defs><g id="Layer_2" data-name="Layer 2"><g clip-path="url(#clip-path)"><rect x="6.65727" y="2.54765" width="43.0214" height="34.96932" fill="#6bcce0"/></g><g clip-path="url(#clip-path-2)"><rect x="29.54782" width="28.29341" height="32.73159" fill="#89d5ec"/></g><g clip-path="url(#clip-path-3)"><rect x="29.95773" y="10.43775" width="33.71786" height="42.22437" fill="#88d2da"/></g><g clip-path="url(#clip-path-4)"><rect x="25.78047" y="23.33919" width="25.1497" height="47.83374" fill="#73a2d6"/></g><g clip-path="url(#clip-path-5)"><rect x="9.92896" y="19.49904" width="30.72825" height="53.01162" fill="#7c80be"/></g><g clip-path="url(#clip-path-6)"><rect y="10.00626" width="38.89573" height="46.2927" fill="#40bae7"/></g></g></svg>